<svg xmlns="http://www.w3.org/2000/svg" viewBox="0 0 400 400">
  <defs>
    <radialGradient id="bg1" cx="50%" cy="50%" r="70%">
      <stop offset="0%" stop-color="#2d1b3d"/>
      <stop offset="100%" stop-color="#0d0015"/>
    </radialGradient>
    <radialGradient id="eyeG1" cx="40%" cy="35%">
      <stop offset="0%" stop-color="#ff69b4"/>
      <stop offset="100%" stop-color="#ff1493"/>
    </radialGradient>
  </defs>
  <!-- BG -->
  <rect width="400" height="400" fill="url(#bg1)"/>
  <!-- Stars -->
  <circle cx="50" cy="60" r="2" fill="white" opacity=".6"/><circle cx="340" cy="40" r="1.5" fill="white" opacity=".5"/>
  <circle cx="120" cy="30" r="1" fill="white" opacity=".7"/><circle cx="280" cy="80" r="2.5" fill="#ff69b4" opacity=".3"/>
  <circle cx="60" cy="350" r="1.5" fill="white" opacity=".4"/><circle cx="350" cy="300" r="2" fill="#ff69b4" opacity=".2"/>
  <circle cx="180" cy="20" r="1" fill="white" opacity=".5"/><circle cx="320" cy="360" r="1.5" fill="white" opacity=".3"/>
  <!-- Hair back -->
  <ellipse cx="200" cy="155" rx="75" ry="90" fill="#ff69b4"/>
  <ellipse cx="135" cy="200" rx="22" ry="70" fill="#ff69b4" transform="rotate(-8 135 200)"/>
  <ellipse cx="265" cy="200" rx="22" ry="70" fill="#ff69b4" transform="rotate(8 265 200)"/>
  <!-- Face -->
  <ellipse cx="200" cy="175" rx="52" ry="58" fill="#fce4d6"/>
  <!-- Eyes L -->
  <ellipse cx="178" cy="168" rx="16" ry="20" fill="url(#eyeG1)"/>
  <ellipse cx="175" cy="162" rx="6" ry="8" fill="white"/>
  <ellipse cx="178" cy="172" rx="8" ry="10" fill="#1a0020"/>
  <circle cx="175" cy="168" r="4" fill="white"/>
  <!-- Eyes R -->
  <ellipse cx="222" cy="168" rx="16" ry="20" fill="url(#eyeG1)"/>
  <ellipse cx="225" cy="162" rx="6" ry="8" fill="white"/>
  <ellipse cx="222" cy="172" rx="8" ry="10" fill="#1a0020"/>
  <circle cx="225" cy="168" r="4" fill="white"/>
  <!-- Blush -->
  <ellipse cx="165" cy="190" rx="12" ry="6" fill="#ffb3c6" opacity=".5"/>
  <ellipse cx="235" cy="190" rx="12" ry="6" fill="#ffb3c6" opacity=".5"/>
  <!-- Mouth -->
  <path d="M193 198 Q200 206 207 198" fill="none" stroke="#e88" stroke-width="2" stroke-linecap="round"/>
  <!-- Ribbon -->
  <path d="M200 100 L175 115 L200 125 L225 115 Z" fill="#ffd700"/>
  <circle cx="200" cy="115" r="5" fill="#fff" opacity=".6"/>
  <!-- Outfit -->
  <path d="M155 235 Q140 310 165 370 L235 370 Q260 310 245 235 Z" fill="#ff69b4"/>
  <path d="M190 240 L210 240 L215 330 L185 330 Z" fill="#fff0f5" opacity=".7"/>
  <!-- Sparkles -->
  <g fill="#ffd700" opacity=".6">
    <polygon points="90,140 93,148 101,148 95,153 97,161 90,156 83,161 85,153 79,148 87,148"/>
    <polygon points="310,120 312,126 318,126 314,130 315,136 310,132 305,136 306,130 302,126 308,126" transform="scale(0.8) translate(80,30)"/>
    <polygon points="70,280 72,286 78,286 74,290 75,296 70,292 65,296 66,290 62,286 68,286"/>
    <polygon points="330,260 332,266 338,266 334,270 335,276 330,272 325,276 326,270 322,266 328,266"/>
  </g>
  <!-- Name -->
  <text x="200" y="390" text-anchor="middle" fill="white" opacity=".8" font-family="sans-serif" font-size="14" font-weight="bold">魔法少女マジカ</text>
</svg>
