<svg xmlns="http://www.w3.org/2000/svg" viewBox="0 0 400 400">
  <defs>
    <radialGradient id="bg6" cx="50%" cy="50%" r="70%">
      <stop offset="0%" stop-color="#2d2400"/>
      <stop offset="100%" stop-color="#0f0d00"/>
    </radialGradient>
    <radialGradient id="eyeG6" cx="40%" cy="35%">
      <stop offset="0%" stop-color="#ffd54f"/>
      <stop offset="100%" stop-color="#f57f17"/>
    </radialGradient>
  </defs>
  <rect width="400" height="400" fill="url(#bg6)"/>
  <!-- Sparkle bg -->
  <circle cx="60" cy="50" r="2" fill="#ffd54f" opacity=".4"/><circle cx="340" cy="40" r="1.5" fill="white" opacity=".3"/>
  <circle cx="40" cy="310" r="2" fill="#ffd54f" opacity=".3"/><circle cx="360" cy="340" r="1.5" fill="white" opacity=".2"/>
  <circle cx="100" cy="350" r="1" fill="#ffd54f" opacity=".5"/><circle cx="300" cy="360" r="2" fill="#ffd54f" opacity=".2"/>
  <!-- Hair -->
  <ellipse cx="200" cy="148" rx="82" ry="88" fill="#ffd54f"/>
  <ellipse cx="128" cy="195" rx="24" ry="75" fill="#ffd54f" transform="rotate(-6 128 195)"/>
  <ellipse cx="272" cy="195" rx="24" ry="75" fill="#ffd54f" transform="rotate(6 272 195)"/>
  <!-- Tiara -->
  <path d="M168 108 L175 90 L185 105 L200 82 L215 105 L225 90 L232 108" fill="none" stroke="#e91e63" stroke-width="2.5"/>
  <circle cx="200" cy="85" r="4" fill="#e91e63"/><circle cx="185" cy="98" r="2.5" fill="#e91e63" opacity=".7"/>
  <circle cx="215" cy="98" r="2.5" fill="#e91e63" opacity=".7"/>
  <!-- Face -->
  <ellipse cx="200" cy="175" rx="52" ry="56" fill="#fce4d6"/>
  <!-- Eyes -->
  <ellipse cx="178" cy="168" rx="16" ry="20" fill="url(#eyeG6)"/>
  <ellipse cx="175" cy="162" rx="6" ry="8" fill="white"/>
  <ellipse cx="178" cy="172" rx="8" ry="10" fill="#1a0f00"/>
  <circle cx="175" cy="168" r="4" fill="white"/>
  <ellipse cx="222" cy="168" rx="16" ry="20" fill="url(#eyeG6)"/>
  <ellipse cx="225" cy="162" rx="6" ry="8" fill="white"/>
  <ellipse cx="222" cy="172" rx="8" ry="10" fill="#1a0f00"/>
  <circle cx="225" cy="168" r="4" fill="white"/>
  <!-- Blush -->
  <ellipse cx="165" cy="190" rx="10" ry="5" fill="#ffe0b2" opacity=".5"/>
  <ellipse cx="235" cy="190" rx="10" ry="5" fill="#ffe0b2" opacity=".5"/>
  <!-- Mouth - happy -->
  <path d="M190 197 Q200 210 210 197" fill="none" stroke="#c88" stroke-width="2.5" stroke-linecap="round"/>
  <!-- Outfit - dress -->
  <path d="M150 235 Q125 310 150 370 L250 370 Q275 310 250 235 Z" fill="#fff176"/>
  <path d="M175 235 L225 235 L235 370 L165 370 Z" fill="#fffde7" opacity=".4"/>
  <!-- Scepter -->
  <line x1="120" y1="220" x2="95" y2="350" stroke="#e91e63" stroke-width="3" opacity=".6"/>
  <polygon points="120,210 110,225 130,225" fill="#e91e63" opacity=".6"/>
  <circle cx="120" cy="210" r="6" fill="#ffd54f" opacity=".7"/>
  <!-- Big sparkles -->
  <g fill="#ffd54f" opacity=".5">
    <polygon points="80,130 83,138 91,138 85,143 87,151 80,146 73,151 75,143 69,138 77,138"/>
    <polygon points="320,110 323,118 331,118 325,123 327,131 320,126 313,131 315,123 309,118 317,118"/>
    <polygon points="90,300 92,306 98,306 94,310 95,316 90,312 85,316 86,310 82,306 88,306"/>
  </g>
  <text x="200" y="390" text-anchor="middle" fill="white" opacity=".8" font-family="sans-serif" font-size="14" font-weight="bold">ゴールデンスター</text>
</svg>
